<svg width="109" height="40" viewBox="0 0 109 40" fill="none" xmlns="http://www.w3.org/2000/svg">
<g id="Arrow 05" clip-path="url(#clip0_0_1005)">
<path id="Arrow 05_2" d="M0.854051 16.1951C6.94013 24.2807 33.4192 32.3291 51.2295 31.8239C70.4806 31.3185 81.0228 27.7828 101.547 14.7815C101.487 16.205 101.307 17.3635 101.336 18.4202C101.315 19.6258 101.306 20.9004 101.58 22.0624C101.639 22.4073 102.411 22.9301 102.867 22.9336C103.323 22.9371 103.98 22.3451 104.068 21.9783C104.833 18.4702 105.449 14.984 106.128 11.4178C106.309 10.2594 105.723 9.49695 104.407 9.33747C99.4099 8.94278 94.4013 8.47909 89.3423 8.16431C88.1974 8.12099 86.9133 8.59336 85.4339 8.81158C87.1253 11.6037 89.7291 10.866 91.7821 11.3412C93.9209 11.8745 96.1486 12.0411 98.8792 12.4871C93.4015 17.2563 87.6018 20.5876 81.2787 23.0765C58.1345 32.2908 35.1415 30.8725 12.503 21.3381C9.55676 20.075 6.78513 18.5033 3.90101 17.1603C3.02833 16.9354 2.2296 16.6995 0.854051 16.1951Z" fill="#DF6951"/>
</g>
<defs>
<clipPath id="clip0_0_1005">
<rect width="104.725" height="23.6944" fill="white" transform="matrix(0.989295 -0.145932 -0.168758 -0.985657 4.85254 39.5496)"/>
</clipPath>
</defs>
</svg>
